<?xml version="1.0" standalone="no"?>
<!DOCTYPE svg PUBLIC "-//W3C//DTD SVG 20010904//EN"
 "http://www.w3.org/TR/2001/REC-SVG-20010904/DTD/svg10.dtd">
<svg version="1.0" xmlns="http://www.w3.org/2000/svg"
 width="2294.000000pt" height="2294.000000pt" viewBox="0 0 2294.000000 2294.000000"
 preserveAspectRatio="xMidYMid meet">
<metadata>
Created by potrace 1.14, written by Peter Selinger 2001-2017
</metadata>
<g transform="translate(0.000000,2294.000000) scale(0.100000,-0.100000)"
fill="#000000" stroke="none">
<path d="M13017 17048 c-166 -42 -347 -162 -478 -318 -34 -39 -69 -67 -126
-96 -99 -53 -95 -52 -250 -29 -39 6 -167 -26 -225 -57 -102 -54 -208 -160
-272 -272 -52 -90 -247 -270 -517 -478 -94 -72 -145 -104 -207 -129 -144 -56
-345 -191 -492 -329 -99 -94 -229 -175 -370 -234 -89 -36 -182 -106 -312 -234
l-67 -66 -148 -2 c-142 -1 -152 -3 -258 -39 -60 -20 -117 -38 -125 -40 -15 -3
-51 -13 -295 -79 -311 -85 -330 -89 -410 -90 -100 0 -173 9 -300 39 -138 32
-247 70 -301 105 -25 16 -85 43 -133 61 -78 29 -97 32 -206 33 -118 0 -140 -2
-180 -20 -40 -18 -176 -8 -280 21 -118 32 -203 51 -271 59 -27 3 -69 8 -94 12
-25 3 -112 5 -195 5 -140 0 -191 -3 -290 -16 -22 -2 -62 -7 -90 -10 -27 -4
-57 -8 -65 -10 -8 -2 -30 -7 -48 -10 -94 -16 -336 -76 -397 -99 -77 -30 -294
-137 -336 -167 -15 -10 -30 -19 -33 -19 -3 0 -27 -13 -53 -28 -26 -15 -75 -39
-108 -51 -86 -34 -455 -215 -528 -260 -34 -21 -84 -46 -112 -57 -88 -33 -247
-16 -229 25 16 39 53 172 58 216 4 27 9 52 12 56 11 19 4 153 -11 206 -20 67
-70 146 -120 187 -19 15 -35 34 -35 41 0 19 -155 58 -210 53 -26 -3 -68 -16
-95 -29 -58 -29 -179 -144 -224 -214 -35 -54 -132 -249 -176 -355 -38 -93 -69
-133 -133 -176 -176 -116 -342 -296 -427 -462 -41 -81 -60 -133 -80 -219 -8
-34 -35 -100 -59 -145 -54 -102 -156 -357 -156 -393 0 -42 -38 -143 -77 -204
-95 -149 -259 -274 -633 -483 -19 -11 -60 -35 -90 -53 -107 -64 -146 -85 -245
-134 -106 -52 -239 -111 -250 -111 -16 0 -191 -93 -252 -133 -111 -75 -259
-214 -292 -276 -7 -11 -17 -21 -23 -21 -17 0 -147 -69 -210 -111 -161 -110
-246 -243 -288 -454 -6 -33 -16 -80 -21 -105 -28 -129 18 -354 110 -539 15
-31 31 -69 34 -83 10 -40 115 -148 198 -203 59 -39 337 -276 374 -319 6 -6 28
-26 50 -45 41 -35 112 -98 295 -262 58 -52 136 -112 173 -133 37 -20 97 -65
133 -98 69 -65 164 -179 164 -197 0 -6 4 -11 8 -11 5 0 15 -12 23 -27 8 -16
16 -30 20 -33 11 -10 86 -148 132 -242 57 -117 78 -168 132 -322 l42 -120 25
40 c52 82 78 141 93 214 15 72 21 236 11 310 -3 19 -8 64 -11 100 -4 36 -9 74
-11 85 -2 11 -7 37 -10 59 -3 21 -16 83 -28 137 -13 55 -20 99 -17 99 23 -1
150 -151 211 -250 19 -30 46 -65 60 -78 32 -28 131 -77 190 -93 69 -18 178
-13 251 11 68 23 209 107 247 147 46 50 79 139 88 243 3 36 7 66 8 67 1 1 40
-11 86 -27 72 -25 302 -91 365 -105 11 -2 101 -22 200 -43 99 -22 223 -47 275
-56 125 -21 146 -25 205 -36 28 -5 69 -11 93 -14 24 -3 46 -7 50 -10 4 -2 36
-7 71 -10 36 -4 67 -8 70 -10 3 -2 31 -7 62 -10 31 -4 65 -8 75 -10 11 -2 42
-7 69 -10 28 -4 97 -13 155 -21 58 -8 125 -16 150 -19 70 -7 233 -26 255 -31
11 -2 22 -4 25 -4 3 -1 5 -58 6 -129 1 -196 52 -400 165 -657 79 -182 112
-245 259 -502 47 -80 114 -173 126 -173 16 0 67 -79 112 -173 67 -140 119
-283 252 -692 53 -166 124 -315 188 -395 131 -166 291 -250 465 -245 92 2 107
7 107 35 0 40 113 139 309 270 102 68 261 218 333 315 159 212 270 469 334
770 16 75 24 147 29 239 7 143 82 315 187 428 57 61 93 126 109 195 15 68 13
188 -6 258 -24 90 -35 152 -43 240 -8 99 -8 503 0 511 12 12 95 -34 117 -65
38 -52 110 -227 126 -305 3 -10 11 -42 19 -70 19 -67 65 -298 81 -402 3 -22 8
-96 9 -165 3 -98 9 -142 30 -213 30 -98 90 -236 103 -236 16 0 71 -60 111
-118 60 -90 109 -177 197 -351 81 -160 163 -334 222 -469 124 -287 335 -553
553 -699 131 -88 332 -163 440 -164 35 0 72 7 100 19 44 20 174 57 235 68 17
2 55 9 85 14 30 5 71 12 90 15 19 2 61 9 92 13 84 13 172 7 268 -17 87 -22
195 -46 243 -55 15 -2 35 -7 45 -10 9 -2 39 -7 65 -11 26 -3 70 -10 98 -15 43
-8 170 -21 234 -23 97 -4 360 91 520 187 193 116 384 305 493 486 11 19 40 73
65 120 24 47 59 111 76 144 60 110 86 244 84 431 -1 107 -2 115 -34 245 -37
151 -31 450 11 549 10 22 15 23 68 18 172 -18 430 -125 827 -345 106 -59 262
-152 307 -183 42 -30 173 -61 253 -61 210 0 392 87 581 277 81 82 188 217 225
284 11 20 45 86 77 146 47 91 158 266 181 285 4 3 26 30 51 60 25 30 83 94
130 141 77 78 92 89 155 109 73 24 227 33 325 18 149 -22 350 -93 530 -186
314 -163 385 -195 591 -258 167 -51 326 -80 496 -89 71 -4 91 -1 161 25 159
58 312 84 497 84 99 0 243 -10 267 -19 7 -2 24 -6 38 -9 56 -10 122 -27 157
-41 83 -32 264 -73 413 -93 71 -9 426 -9 511 0 74 9 237 36 258 43 15 6 95 14
191 20 84 5 495 5 580 0 275 -17 487 -42 630 -75 109 -25 262 -38 425 -35 94
2 186 7 205 11 88 18 226 -7 474 -86 79 -26 100 -29 107 -18 21 33 23 159 5
258 -3 14 -7 36 -10 50 -22 125 -161 546 -190 579 -53 59 -173 456 -236 782
-34 174 -66 271 -132 401 -50 98 -135 222 -170 246 -35 25 -69 67 -136 167
-75 111 -76 113 -113 181 -96 177 -123 250 -149 394 -12 66 -15 234 -5 280 2
14 8 41 11 60 4 19 15 52 26 72 43 87 69 257 73 487 3 181 15 218 165 516 111
223 111 223 144 339 51 174 61 343 30 466 -27 108 28 291 141 470 13 20 38 49
56 66 38 32 85 92 111 140 45 80 109 280 149 459 6 28 13 59 15 70 3 11 7 34
10 50 3 17 9 55 14 85 5 30 12 73 15 95 3 22 8 51 11 64 l5 24 -76 -6 c-89 -8
-201 -44 -300 -95 -209 -110 -601 -417 -645 -506 -28 -55 -269 -255 -370 -306
-47 -24 -215 -139 -285 -195 -217 -174 -446 -409 -563 -577 -199 -287 -465
-538 -643 -608 -91 -36 -200 -120 -349 -270 -102 -103 -152 -161 -170 -198
-14 -28 -28 -52 -32 -52 -5 0 -8 -4 -8 -9 0 -33 -299 -431 -349 -463 -65 -43
-190 -146 -246 -204 -70 -72 -220 -237 -223 -245 -2 -5 -10 -9 -17 -9 -18 0
-8 62 20 126 32 71 90 154 173 246 94 103 114 155 116 303 2 201 -34 328 -104
369 -41 24 -130 17 -245 -19 l-80 -24 -56 55 c-60 59 -78 64 -169 49 -85 -14
-312 -114 -402 -176 -14 -11 -29 -19 -32 -19 -6 0 -150 -90 -216 -135 -25 -17
-88 -61 -140 -97 -100 -69 -164 -104 -430 -238 -91 -46 -185 -101 -209 -122
-101 -88 -333 -173 -501 -183 -161 -10 -376 -55 -582 -122 -59 -19 -131 -38
-159 -42 -57 -9 -269 -15 -269 -8 0 3 28 19 62 37 65 33 242 146 268 171 8 8
35 30 59 49 86 67 211 199 296 315 33 44 79 103 104 130 160 182 236 381 234
615 -1 140 -48 324 -97 381 -47 56 -47 152 -1 255 37 80 26 191 -24 241 -67
68 -147 219 -246 463 -42 106 -65 183 -86 285 -25 126 -65 275 -89 330 -4 11
-25 63 -45 115 -44 116 -56 137 -123 234 -111 160 -212 393 -262 606 -89 371
-239 638 -408 724 -43 22 -55 35 -82 88 -43 86 -144 235 -227 338 -56 68 -83
93 -139 123 -60 33 -181 120 -252 182 -13 11 -31 38 -41 60 -35 79 -149 150
-287 178 -63 13 -74 12 -129 -6 -89 -28 -252 -32 -330 -7 -84 27 -135 29 -218
8z m749 -149 c58 -23 102 -64 109 -100 3 -13 22 -40 44 -60 92 -85 294 -229
321 -229 30 0 317 -407 299 -424 -6 -6 -266 122 -323 158 -71 45 -81 58 -106
123 -29 77 -79 159 -130 211 -48 48 -81 68 -128 75 -28 5 -91 47 -141 95 -23
22 -160 122 -168 122 -5 0 -17 8 -28 18 -11 9 -19 16 -17 16 2 -1 33 6 70 15
74 19 109 16 198 -20z m-1265 -435 c69 -28 144 -78 153 -101 10 -25 210 -100
315 -118 19 -3 37 -7 40 -9 3 -2 38 -7 76 -11 119 -11 167 -24 243 -61 101
-49 167 -120 233 -248 118 -231 291 -446 430 -538 112 -73 457 -249 567 -288
76 -28 144 -85 166 -141 10 -23 20 -71 23 -107 6 -62 10 -70 79 -163 82 -108
183 -213 229 -236 50 -26 137 -97 183 -149 39 -45 112 -178 112 -204 0 -6 12
-33 26 -61 31 -62 106 -139 163 -168 23 -12 45 -30 48 -39 24 -68 113 -274
154 -355 51 -102 93 -168 133 -212 35 -38 36 -55 9 -131 -31 -86 -37 -116 -37
-179 1 -77 12 -118 45 -168 61 -92 83 -184 84 -342 0 -201 -61 -355 -207 -522
-29 -33 -80 -98 -113 -143 -141 -195 -368 -385 -590 -495 -142 -70 -290 -123
-352 -127 -5 0 -18 -4 -31 -9 -12 -5 -33 -11 -45 -13 -12 -3 -51 -13 -87 -22
-36 -9 -71 -16 -77 -17 -26 -1 -12 -17 15 -18 15 0 36 -2 47 -4 11 -3 39 -7
62 -10 24 -3 73 -9 110 -15 38 -5 95 -12 128 -15 33 -3 75 -8 93 -10 17 -3 59
-6 91 -6 l59 -2 37 -106 c38 -108 79 -191 122 -248 31 -40 39 -110 24 -212
-18 -119 -21 -159 -36 -441 -9 -158 -9 -421 0 -545 7 -107 9 -123 20 -175 3
-14 7 -35 10 -48 10 -52 19 -64 88 -104 211 -124 222 -127 468 -128 256 -2
261 -2 255 8 -6 11 -13 42 -36 172 -28 163 -31 187 -35 320 -4 142 9 212 47
245 13 11 39 42 57 68 61 90 163 174 243 203 24 8 88 17 143 19 531 21 654 28
895 56 151 17 175 20 190 24 8 2 33 7 55 10 86 12 192 39 262 67 63 24 88 52
187 200 124 189 186 329 188 430 0 33 7 53 27 75 25 29 153 166 281 303 l61
65 -5 -36 c-7 -47 -16 -233 -21 -424 -3 -82 -7 -170 -10 -195 -7 -63 -8 -258
-1 -300 13 -73 19 -95 31 -115 21 -32 33 -134 41 -330 5 -101 2 -146 -11 -205
-22 -96 -47 -219 -60 -295 -3 -16 -12 -66 -20 -110 -8 -44 -17 -93 -19 -110
-6 -43 -18 -117 -21 -135 -3 -20 -16 -98 -20 -130 -4 -24 -6 -46 -23 -190 -4
-36 -7 -84 -7 -107 0 -36 -3 -43 -20 -44 -83 -2 -222 -20 -265 -34 -10 -3 -27
-8 -37 -10 -10 -2 -33 -7 -50 -11 l-33 -6 -1 43 c-3 88 -2 136 4 214 11 135
17 189 27 215 20 54 28 140 24 255 -2 66 -6 131 -9 145 -2 13 -7 42 -11 65 -3
22 -11 65 -18 95 -26 112 1 204 85 288 119 121 167 266 108 328 -31 33 -55 36
-70 7 -23 -43 -125 -83 -344 -133 -58 -13 -115 -41 -165 -80 -19 -15 -53 -30
-74 -33 -22 -4 -45 -12 -52 -19 -15 -15 -19 -58 -9 -108 6 -31 3 -40 -24 -69
-28 -30 -36 -33 -68 -28 -23 4 -50 19 -73 42 -43 42 -77 45 -119 10 -44 -38
-64 -108 -61 -219 1 -50 2 -105 2 -122 1 -45 -27 -124 -82 -234 -89 -178 -98
-190 -165 -214 -33 -12 -87 -37 -120 -56 -99 -55 -108 -60 -119 -51 -33 24
-284 110 -371 127 -11 2 -31 6 -45 9 -162 31 -329 21 -465 -28 -50 -19 -75
-37 -160 -124 -121 -122 -124 -126 -206 -233 -90 -118 -135 -188 -190 -299
-49 -100 -138 -243 -140 -226 -4 48 5 142 17 160 45 68 83 259 86 436 3 128
-6 160 -54 185 -44 23 -148 14 -168 -15 -24 -34 -256 -120 -375 -138 -16 -2
-61 -15 -98 -28 -120 -41 -178 -126 -181 -264 l-1 -76 -55 -34 c-93 -59 -210
-156 -356 -298 l-44 -41 -122 63 c-155 79 -331 155 -428 186 -41 13 -77 24
-79 26 -8 6 7 14 35 19 16 3 65 17 109 30 384 120 614 259 681 411 13 29 24
58 24 63 0 13 83 109 193 225 50 52 67 82 116 209 48 126 65 228 49 296 -4 19
-10 87 -13 150 -5 120 -2 136 49 313 14 48 27 103 30 122 18 108 21 152 21
265 -1 134 -18 224 -60 310 -12 25 -26 63 -30 85 -5 22 -9 45 -10 50 -2 6 -5
26 -9 45 -3 19 -13 71 -21 115 -21 105 -19 94 -54 300 -16 99 -32 200 -35 225
-3 25 -8 54 -10 65 -2 11 -7 49 -11 85 -3 36 -8 76 -10 90 -6 38 -15 155 -20
245 -2 44 -7 91 -10 105 -3 14 -8 42 -12 64 -6 37 -5 38 16 26 71 -37 300 -30
442 15 133 42 198 -28 213 -230 8 -116 49 -201 108 -226 74 -30 198 20 299
120 216 217 356 551 357 851 0 107 -11 214 -29 284 -10 37 -12 38 -46 33 -49
-8 -145 -55 -258 -126 -63 -40 -104 -59 -116 -56 -30 10 -96 85 -125 144 -28
54 -29 62 -30 217 -3 239 -46 383 -144 484 -80 82 -162 92 -340 40 -58 -16
-108 -30 -111 -30 -3 0 0 39 6 88 18 127 13 370 -9 462 -12 48 -19 118 -20
195 -1 109 1 123 22 157 23 37 23 39 8 98 -16 63 -50 117 -90 143 -94 62 -302
52 -451 -21 -167 -82 -306 -85 -374 -7 -44 50 -53 98 -52 274 2 187 -15 299
-59 387 -39 79 -60 96 -168 130 -75 24 -103 28 -202 28 -92 0 -127 -4 -172
-21 -33 -12 -71 -19 -90 -17 -213 28 -336 64 -390 112 -22 19 -23 75 -2 93 32
27 -12 171 -71 233 -32 32 -82 56 -120 56 -17 0 -25 5 -25 18 0 10 -4 22 -10
28 -17 17 -46 187 -44 257 1 37 7 81 14 97 10 25 18 30 49 31 53 1 120 15 137
28 0 1 29 -11 65 -25z m-1276 -1140 c76 -16 185 -98 266 -199 44 -55 182 -135
291 -170 112 -35 242 -48 328 -32 25 5 83 8 130 8 76 0 108 -4 200 -25 51 -11
172 -80 210 -120 22 -23 52 -64 66 -91 56 -106 159 -253 223 -315 37 -36 95
-80 131 -99 114 -60 422 -247 513 -312 49 -34 111 -88 139 -118 55 -60 108
-160 108 -202 0 -22 12 -35 67 -70 151 -98 182 -142 188 -265 2 -47 7 -101 11
-118 11 -53 45 -104 76 -115 31 -11 101 -62 131 -96 30 -35 66 -100 80 -146
26 -87 21 -176 -17 -316 -20 -70 -38 -144 -41 -163 -3 -19 -10 -53 -15 -75 -5
-22 -10 -60 -10 -85 l-1 -45 -24 75 c-35 104 -82 195 -131 249 -22 25 -98 127
-169 226 -106 148 -193 264 -311 415 -247 314 -569 661 -794 855 -223 193
-450 335 -533 335 -104 0 -163 -91 -171 -268 -27 -544 -28 -1519 -3 -1717 5
-39 126 -234 200 -322 46 -55 120 -282 152 -463 14 -78 17 -207 6 -247 -13
-49 -117 -170 -321 -375 -111 -111 -144 -151 -174 -210 -63 -125 -81 -254 -53
-388 21 -104 13 -161 -40 -270 -66 -138 -121 -296 -138 -400 -3 -19 -8 -42
-10 -50 -2 -8 -7 -46 -10 -85 -4 -38 -10 -86 -14 -105 -8 -41 -7 -161 2 -205
4 -17 23 -64 43 -105 20 -41 56 -115 79 -165 24 -49 75 -157 115 -240 40 -82
85 -177 100 -210 15 -33 54 -114 86 -180 l59 -120 0 -96 c0 -89 -2 -100 -35
-165 -91 -181 -418 -410 -671 -470 -181 -43 -294 -118 -386 -259 -18 -27 -33
-59 -33 -70 0 -56 -109 -188 -205 -250 -151 -97 -358 -174 -470 -173 -193 0
-243 -57 -173 -198 l20 -40 -63 -187 c-71 -214 -54 -200 -174 -140 -125 63
-272 185 -378 316 -76 93 -187 271 -217 347 -7 19 -51 115 -96 212 l-82 178
91 82 c51 46 100 90 110 99 10 9 17 23 16 30 -6 28 12 68 39 87 58 40 121 57
254 68 119 9 241 55 351 130 48 33 63 37 138 36 47 -1 163 -44 241 -89 112
-65 132 -73 171 -73 48 0 72 12 120 62 60 62 118 193 153 346 52 224 205 320
379 238 65 -31 97 -34 163 -15 88 24 130 109 117 239 -24 234 -3 336 96 474
l30 41 -38 33 c-21 18 -57 47 -80 65 -23 17 -43 39 -43 48 0 24 -27 44 -113
83 -198 90 -349 231 -470 441 -54 92 -131 264 -142 315 -12 56 -90 287 -129
384 -83 202 -189 397 -290 531 -62 82 -76 107 -104 191 -30 86 -33 107 -38
206 -6 156 43 263 168 363 12 10 88 55 133 80 58 31 231 147 335 224 116 85
187 146 290 251 256 257 414 628 371 869 -13 72 -55 165 -93 205 -35 37 -46
59 -68 136 -94 329 -107 464 -54 575 26 54 29 70 29 160 -1 109 -23 208 -77
345 -103 261 -195 336 -434 354 -110 8 -232 79 -256 147 -8 24 -16 29 -42 29
-52 0 -117 -40 -163 -100 -23 -30 -42 -60 -43 -65 0 -18 -62 -38 -114 -38 -71
0 -137 32 -203 99 l-55 57 43 26 c24 14 75 39 114 56 136 60 237 126 341 225
32 30 59 47 70 45 162 -28 318 -22 400 15 79 36 141 43 229 24z m-4580 -582
c5 -1 -11 -23 -37 -49 -133 -139 -203 -261 -213 -373 -15 -169 -78 -343 -159
-445 -46 -58 -106 -238 -121 -365 -4 -30 -9 -58 -12 -62 -12 -20 -14 -246 -4
-335 7 -54 14 -118 17 -143 3 -25 7 -56 9 -70 2 -14 6 -54 10 -90 4 -36 8 -76
10 -90 2 -14 6 -50 10 -80 4 -30 8 -66 10 -80 3 -14 11 -79 19 -145 8 -66 17
-136 20 -155 5 -33 21 -151 32 -230 3 -19 9 -62 14 -95 5 -33 12 -78 15 -100
3 -22 10 -62 15 -90 5 -27 11 -63 13 -80 13 -84 51 -281 73 -373 8 -34 13 -70
10 -80 -3 -9 -7 -33 -10 -53 -8 -56 -55 -197 -91 -276 -38 -83 -79 -146 -145
-223 -55 -64 -93 -129 -198 -340 -121 -243 -157 -331 -197 -485 -50 -192 -163
-454 -253 -585 -50 -73 -118 -142 -159 -162 -16 -7 -29 -23 -31 -36 -2 -12 -5
-22 -7 -22 -2 0 -37 4 -77 10 -40 5 -91 12 -113 14 -126 15 -152 18 -174 21
-13 3 -45 7 -70 11 -25 3 -57 8 -71 10 -14 2 -45 6 -70 9 -136 16 -750 121
-758 130 -6 6 68 148 96 185 29 39 62 69 76 70 16 0 131 74 169 109 53 48 94
110 109 165 9 34 26 59 60 92 41 38 167 124 183 124 3 0 24 9 48 19 46 21 99
37 162 47 21 3 92 32 156 64 274 138 354 201 462 364 47 73 138 239 135 249 0
1 7 19 15 40 21 49 72 236 86 312 30 161 33 452 7 605 -3 14 -7 43 -10 65 -12
88 -54 171 -113 226 -96 88 -192 120 -373 125 -164 4 -285 -14 -418 -64 -8 -3
12 31 43 74 195 271 208 527 40 752 -35 48 -141 143 -204 184 -40 26 -67 48
-60 49 8 0 21 2 29 4 8 2 24 6 35 9 28 6 214 47 235 51 9 2 66 15 126 30 60
15 125 29 144 31 84 11 183 64 234 125 61 72 117 203 131 303 3 28 12 79 20
115 7 36 16 84 19 106 4 22 8 47 11 55 2 8 6 26 9 40 11 66 81 324 112 418 44
134 106 267 130 280 21 11 193 48 269 58 28 3 52 8 55 9 3 2 50 6 105 10 55 4
101 8 102 9 3 3 242 0 258 -2z m2245 -319 c29 -122 29 -123 36 -173 3 -25 9
-49 11 -54 13 -20 11 -264 -2 -325 -8 -35 -17 -85 -20 -110 -12 -93 -14 -107
-20 -155 -12 -95 -6 -330 10 -420 9 -49 29 -123 45 -163 38 -96 41 -109 45
-228 5 -148 -19 -283 -80 -453 -31 -88 -35 -120 -40 -362 -3 -161 -1 -225 13
-300 21 -123 20 -226 -3 -310 -3 -8 -7 -33 -11 -55 -3 -22 -14 -78 -24 -125
-10 -47 -21 -96 -23 -110 -27 -143 -97 -383 -161 -548 -112 -287 -206 -609
-231 -782 -3 -25 -8 -52 -10 -60 -13 -47 -28 -207 -29 -302 -1 -49 -3 -88 -6
-88 -3 0 -47 16 -99 35 -52 19 -96 34 -98 32 -2 -2 -6 -96 -9 -208 -5 -154
-10 -208 -20 -220 -18 -20 -129 -74 -171 -84 -18 -3 -68 -8 -110 -10 -61 -2
-111 -14 -230 -53 -84 -28 -171 -54 -195 -57 -76 -12 -209 -67 -278 -115 -14
-10 -50 -21 -80 -25 -131 -16 -275 -61 -362 -115 -27 -17 -56 -30 -66 -30 -31
0 -242 48 -377 85 -237 66 -243 67 -312 60 -131 -13 -248 -75 -356 -188 -21
-21 -40 -38 -41 -36 -8 9 -37 111 -52 179 -24 113 -30 200 -13 202 20 2 28 3
89 16 30 6 69 14 85 17 17 3 41 7 55 10 14 3 45 8 70 11 25 3 47 8 50 9 3 2
35 7 70 10 36 4 68 8 71 11 3 2 32 4 63 5 48 2 71 10 144 52 117 66 182 118
212 167 41 68 142 106 340 129 109 12 391 3 420 -14 3 -2 37 3 75 10 39 7 88
16 110 19 22 4 76 13 120 22 44 8 91 18 105 20 14 3 63 14 110 25 47 11 92 22
101 24 129 27 356 123 396 166 27 30 121 298 148 423 2 12 11 48 19 81 42 174
42 299 0 332 -14 10 -14 18 -1 70 29 119 5 227 -57 257 -32 15 -52 17 -171 18
-33 0 -148 1 -255 1 -367 2 -566 -30 -641 -105 -28 -29 -34 -30 -88 -25 -143
12 -205 93 -196 253 4 64 14 94 45 129 44 50 89 171 85 230 -2 28 -19 72 -37
98 -41 58 -54 171 -27 239 12 30 7 107 -10 150 -16 43 -86 106 -131 119 -41
12 -42 14 -36 47 18 113 118 155 271 113 43 -12 86 -30 94 -39 47 -52 144 -94
255 -109 92 -14 450 -5 574 13 134 19 244 66 307 130 38 39 43 52 78 190 40
161 62 214 95 229 43 20 63 196 28 262 -37 72 -103 87 -233 52 -93 -24 -260
-32 -355 -16 -54 9 -178 45 -193 57 -15 11 -273 94 -360 116 -82 20 -148 35
-180 39 -22 4 -47 8 -55 10 -18 5 -137 17 -197 19 -50 3 -66 15 -110 84 -121
188 -113 370 22 504 l37 36 56 -26 c53 -25 67 -27 187 -26 91 0 147 5 188 17
144 43 177 49 247 50 127 0 182 -15 305 -87 111 -64 223 -84 298 -53 42 18 85
74 156 202 100 182 131 298 88 329 -16 12 -15 16 16 57 178 233 270 411 261
505 l-3 40 57 16 c31 9 62 17 69 17 6 1 20 -37 33 -86z m1055 -154 c80 -24
279 -124 345 -173 39 -29 51 -47 89 -137 25 -57 86 -187 137 -289 78 -156 98
-189 128 -208 47 -29 93 -93 111 -154 30 -103 -5 -294 -64 -349 -44 -40 -111
-193 -156 -354 -62 -224 -229 -371 -500 -439 -33 -8 -82 -18 -110 -21 -27 -4
-61 -8 -75 -11 -23 -4 -248 -5 -315 -1 l-30 2 0 90 c0 50 3 115 7 145 4 30 10
82 14 115 3 33 8 69 10 80 3 11 7 36 10 55 3 19 16 100 31 180 14 80 27 159
30 175 2 17 15 75 28 130 21 90 42 217 44 270 6 200 -8 347 -53 545 -9 38 -14
103 -13 155 2 78 6 97 30 137 15 26 36 50 47 53 11 3 20 11 20 16 0 6 3 8 8 6
4 -3 16 -1 27 3 32 12 124 3 200 -21z m-5842 -193 c55 -41 113 -65 173 -72
l57 -7 -35 -31 c-19 -17 -57 -50 -84 -73 -27 -23 -62 -53 -79 -67 -55 -48
-249 -184 -307 -215 -32 -17 -81 -38 -110 -47 -366 -112 -638 -326 -785 -619
-91 -179 -117 -287 -117 -480 0 -384 159 -697 475 -934 82 -62 230 -151 251
-151 11 0 72 -20 123 -40 11 -4 47 -18 80 -31 214 -80 400 -208 456 -312 33
-62 32 -145 -3 -219 -113 -241 -362 -438 -683 -538 -64 -21 -210 -56 -260 -64
-196 -30 -351 -39 -665 -40 -242 -1 -343 4 -382 19 -20 8 -19 22 -20 -240 l-1
-150 51 -27 c81 -42 422 -186 617 -259 117 -44 181 -73 185 -84 11 -32 3 -171
-14 -228 -17 -57 -62 -117 -89 -117 -8 0 -22 -8 -31 -19 -9 -10 -45 -32 -79
-47 -53 -25 -74 -29 -142 -28 -67 0 -90 5 -137 29 -70 34 -71 35 -162 165
-121 172 -204 243 -288 243 -47 0 -78 -20 -103 -66 -19 -36 -19 -36 8 -149 31
-134 53 -256 63 -353 10 -107 12 -245 2 -245 -4 0 -8 5 -8 11 0 21 -105 231
-162 324 -54 88 -55 92 -43 130 18 62 18 211 0 302 -30 156 -80 287 -180 466
-85 154 -80 269 14 364 55 55 121 80 226 86 134 8 222 45 261 112 24 39 25
141 2 173 -44 64 45 258 188 408 76 81 98 125 98 200 1 56 -3 66 -45 130 -96
144 -168 300 -204 439 -29 111 -38 246 -20 290 24 60 168 187 340 299 50 32
103 70 118 85 78 71 81 167 10 280 l-34 54 19 46 c19 43 25 68 36 134 6 32 25
97 35 112 3 6 6 12 6 15 1 3 9 22 18 44 9 21 17 40 17 42 0 2 16 37 35 77 33
69 42 79 156 168 66 52 169 132 228 179 206 163 256 199 306 215 74 25 221
105 385 211 80 51 154 100 165 108 27 20 31 20 68 -8z m16928 -417 c-72 -155
-159 -436 -175 -564 -8 -66 -138 -444 -202 -590 -10 -22 -18 -42 -19 -45 -6
-27 -86 -165 -117 -203 -29 -34 -46 -70 -64 -131 -55 -191 -140 -380 -220
-493 -49 -69 -130 -139 -172 -150 -15 -3 -97 -42 -182 -85 -144 -73 -287 -134
-335 -144 -85 -18 -83 -18 -90 28 -12 78 -14 93 -19 133 -4 36 -7 67 -22 220
-11 116 -4 443 11 532 5 32 27 57 134 156 104 95 201 164 269 190 38 15 131
70 165 97 7 5 41 33 77 61 134 107 329 325 441 492 53 79 128 165 249 286 123
124 280 264 288 256 2 -1 -6 -22 -17 -46z m-8151 -152 c70 -62 171 -290 255
-577 20 -69 40 -134 44 -145 5 -11 64 -95 133 -185 565 -749 557 -738 572
-808 15 -66 8 -139 -18 -194 -35 -72 -72 -111 -98 -102 -43 13 -256 5 -296
-12 -75 -32 -154 -35 -272 -10 -90 19 -111 39 -152 146 -27 69 -91 317 -103
395 -3 22 -7 47 -10 55 -2 8 -6 33 -10 55 -3 22 -10 65 -15 95 -5 30 -12 82
-15 115 -10 106 -77 273 -163 409 -42 65 -92 222 -108 337 -17 124 5 259 54
333 30 45 126 115 157 115 11 0 31 -10 45 -22z m-8393 -420 c46 -9 52 -14 47
-31 -4 -17 8 -29 69 -64 131 -77 234 -190 287 -312 33 -77 34 -216 2 -310 -34
-100 -116 -228 -217 -338 -45 -49 -63 -55 -280 -93 -121 -22 -348 -31 -408
-17 -58 14 -198 138 -270 240 -139 195 -155 394 -49 604 56 112 115 180 184
215 67 34 172 75 210 83 13 3 52 11 88 19 77 17 264 19 337 4z m-3004 -1209
c-8 -42 -57 -157 -116 -273 -25 -49 -59 -132 -76 -183 -24 -76 -41 -107 -88
-165 -112 -140 -186 -195 -215 -160 -14 17 -15 61 -6 209 7 111 -4 185 -33
240 l-22 42 37 32 c106 93 209 155 366 219 57 23 116 49 130 56 14 8 26 14 27
15 1 0 0 -15 -4 -32z m-893 -595 c0 -36 3 -40 56 -67 72 -38 140 -105 166
-163 41 -93 18 -196 -72 -323 -197 -280 -195 -392 5 -345 62 15 82 16 114 6
79 -23 151 -145 184 -310 12 -58 12 -67 -6 -102 -22 -46 -36 -144 -26 -183 7
-24 6 -26 -9 -14 -14 11 -64 55 -106 93 -6 6 -54 48 -106 95 -52 46 -97 87
-100 90 -3 3 -39 29 -80 58 -99 68 -150 117 -164 155 -7 18 -27 61 -45 95 -35
69 -85 215 -96 278 -12 78 -6 188 14 246 11 31 17 58 15 61 -15 15 45 176 78
211 7 8 20 24 28 36 16 24 130 120 142 120 5 0 8 -17 8 -37z m16788 -17 c5 -3
19 -7 33 -10 175 -32 322 -185 230 -237 -36 -21 -82 -114 -106 -216 -10 -41
-28 -87 -43 -107 -43 -56 -198 -128 -327 -151 -77 -14 -177 -26 -246 -29 -68
-4 -82 -2 -131 23 -30 15 -63 31 -74 34 -10 4 -39 14 -64 22 -118 39 -270 1
-442 -111 -38 -24 -70 -44 -71 -44 -1 0 -2 42 -3 93 -1 79 -5 104 -33 174 -17
45 -43 99 -58 120 -74 109 -21 171 152 174 39 0 93 -3 120 -7 89 -13 186 -7
260 17 83 27 134 53 237 126 154 108 269 143 450 138 59 -2 111 -6 116 -9z
m-7685 -240 c15 -2 29 -5 32 -7 16 -16 24 -345 11 -469 -6 -58 -4 -89 8 -132
9 -30 19 -65 21 -78 9 -49 110 -334 171 -483 43 -105 69 -187 79 -245 9 -48
17 -99 20 -112 3 -13 7 -56 11 -95 3 -38 8 -79 10 -90 2 -11 4 -69 5 -128 0
-89 -3 -115 -19 -148 l-20 -41 21 5 c12 3 54 9 92 12 39 4 81 8 95 11 75 12
253 19 470 19 256 0 360 -7 475 -31 22 -4 42 -9 45 -9 3 -1 20 -5 39 -9 l34
-8 -74 -72 c-76 -72 -131 -137 -163 -191 -10 -16 -34 -42 -54 -56 -51 -36
-175 -101 -247 -128 -33 -13 -73 -29 -90 -36 -100 -42 -167 -58 -208 -49 -66
15 -178 8 -249 -15 -72 -24 -125 -57 -195 -120 -73 -67 -195 -115 -348 -137
-27 -3 -58 -8 -67 -10 -26 -4 -183 -15 -288 -19 -104 -4 -173 -21 -244 -61
-63 -35 -137 -109 -173 -173 -25 -43 -32 -49 -38 -34 -19 46 -53 153 -50 153
3 0 0 12 -6 27 -8 22 -12 110 -8 203 0 8 -2 35 -6 58 -7 44 -7 44 16 31 16 -9
58 -13 124 -13 120 1 247 31 417 98 62 24 172 65 243 91 72 25 152 54 179 64
l49 18 -40 6 c-33 6 -197 81 -258 119 -11 7 -72 46 -135 87 -160 104 -257 150
-343 165 -88 16 -104 24 -146 73 -37 43 -128 220 -118 229 9 9 89 -12 175 -46
90 -37 203 -56 307 -54 101 2 162 18 197 52 40 37 49 75 39 157 -5 39 -6 149
-4 245 10 402 9 462 -12 600 -8 54 -51 187 -70 216 -22 34 -36 293 -21 384 17
102 31 135 69 171 20 19 29 20 117 14 52 -3 108 -8 123 -9z m3734 -167 l182
-1 12 -52 c10 -48 8 -184 -4 -231 -3 -11 -10 -38 -15 -60 -16 -59 -24 -128
-27 -233 -3 -104 6 -157 37 -218 l20 -41 -21 -69 c-12 -38 -32 -88 -45 -111
-28 -48 -46 -107 -75 -243 -22 -107 -28 -160 -36 -310 -11 -215 -20 -250 -144
-565 -68 -172 -96 -252 -88 -256 23 -12 194 -36 280 -40 26 -1 44 -5 40 -9 -4
-4 -84 -47 -178 -95 -158 -82 -174 -89 -235 -91 -82 -2 -137 -24 -146 -58 -6
-24 -10 -20 -74 62 -37 48 -106 125 -152 172 -77 78 -119 117 -249 235 -24 23
-109 94 -189 159 -187 153 -183 148 -145 142 17 -3 58 -8 92 -11 72 -7 173
-37 223 -68 29 -17 53 -21 147 -22 l111 -1 5 29 c2 17 4 175 3 352 l-1 321
-27 33 c-41 48 -36 108 12 159 25 26 100 182 153 318 45 114 96 302 103 380 7
84 10 103 23 154 26 96 65 184 100 224 23 27 83 55 106 50 11 -2 102 -4 202
-5z m7128 -206 c41 -20 85 -71 120 -140 26 -52 30 -71 35 -178 4 -91 11 -131
26 -166 24 -50 80 -119 98 -119 23 0 55 -40 66 -82 19 -68 15 -166 -10 -237
-48 -137 -9 -321 105 -491 62 -93 95 -163 158 -340 30 -82 31 -92 35 -282 4
-195 4 -197 -17 -193 -43 8 -309 21 -482 24 l-66 1 -7 62 c-8 76 -43 156 -91
205 -58 60 -97 152 -110 262 -11 97 -69 172 -142 187 -27 5 -36 1 -72 -37 -65
-68 -184 -253 -240 -372 -28 -60 -51 -113 -51 -117 0 -5 -19 -22 -43 -38 -53
-37 -114 -103 -163 -176 -20 -31 -44 -57 -53 -57 -25 -2 -70 -1 -134 1 -54 3
-58 5 -52 24 3 12 14 62 25 111 50 237 41 357 -29 423 -23 22 -33 45 -49 122
-34 157 -55 321 -52 405 9 238 -5 370 -53 501 -13 35 -13 51 -1 119 35 199 94
322 167 343 18 5 59 18 92 28 77 23 145 22 187 -4 74 -45 252 -79 344 -65 36
6 159 119 214 195 38 54 67 76 125 94 43 13 72 10 120 -13z m-12375 -1830 c3
-174 13 -260 44 -384 43 -168 23 -278 -63 -367 -53 -54 -104 -134 -151 -236
-50 -108 -68 -182 -74 -296 -6 -123 -12 -162 -46 -295 -99 -392 -307 -718
-575 -898 -143 -96 -246 -176 -302 -234 -29 -30 -53 -59 -53 -64 0 -4 -6 -7
-12 -4 -7 2 -35 6 -61 9 -146 16 -291 144 -386 340 -33 68 -101 250 -101 271
0 3 8 5 19 5 24 0 118 38 153 62 122 83 414 179 593 193 103 8 162 41 257 142
84 88 204 280 272 433 16 36 32 72 37 80 45 73 70 142 67 181 -2 36 -8 47 -37
66 -30 20 -43 22 -120 19 -104 -5 -124 -12 -179 -64 -83 -78 -185 -109 -297
-91 -62 10 -80 9 -131 -6 -50 -14 -70 -28 -129 -87 -89 -90 -161 -127 -340
-173 -76 -20 -255 -56 -300 -60 -11 -1 -42 -5 -70 -9 l-50 -6 -35 61 c-19 34
-56 82 -81 108 -45 46 -115 148 -107 156 2 3 22 7 44 10 21 4 46 8 54 10 8 2
29 7 46 9 83 15 363 115 466 167 21 11 42 28 45 37 14 36 86 124 125 153 79
57 128 64 388 54 87 -3 149 0 203 11 153 29 300 95 356 160 30 33 37 50 44
104 14 95 130 237 277 338 72 49 200 167 200 184 0 4 2 8 4 8 2 0 5 -44 6 -97z
m4745 -1049 c0 -76 19 -221 39 -299 21 -80 25 -112 24 -210 -1 -64 -8 -143
-19 -191 -18 -83 -68 -203 -94 -224 -8 -7 -15 -17 -15 -23 0 -5 -16 -42 -36
-81 -143 -281 -409 -514 -723 -633 -134 -51 -178 -61 -253 -58 -144 6 -392 49
-660 116 -64 16 -132 27 -150 25 -18 -2 -67 -8 -108 -12 -41 -4 -77 -8 -80 -9
-3 -1 -32 -5 -65 -9 -33 -5 -69 -10 -80 -12 -11 -2 -31 -6 -45 -9 -91 -18
-244 -56 -255 -65 -5 -4 -20 -11 -33 -15 -21 -6 -22 -4 -16 22 28 124 104 202
241 247 68 23 86 25 190 30 154 7 331 98 600 308 99 77 103 83 119 138 21 75
92 183 178 269 l67 68 36 -12 c70 -24 193 7 339 84 70 38 93 55 106 83 35 73
217 214 395 304 114 58 214 132 263 195 18 21 33 39 34 39 1 0 1 -30 1 -66z"/>
<path d="M4455 12908 c19 -72 25 -177 13 -230 -14 -65 -50 -112 -105 -138 -41
-19 -59 -22 -123 -17 -150 10 -237 78 -259 200 l-8 42 -13 -60 c-17 -78 -17
-190 -1 -239 20 -59 83 -122 144 -142 98 -34 286 -21 372 25 33 18 115 98 116
115 0 6 3 20 5 31 20 93 -12 221 -91 365 -60 108 -67 115 -50 48z"/>
</g>
</svg>
